<svg xmlns="http://www.w3.org/2000/svg" viewBox="0 0 240 244" fill="none"><title>Goro</title><desc>Original Goro identity. Three parallel trails represent concurrent execution. MIT artwork; slogan outlines use Syne, SIL OFL 1.1.</desc><g transform="translate(40 4)">
<g fill="#35CDBE"><rect x="12" y="38" width="48" height="10" rx="5"/><rect x="2" y="61" width="58" height="10" rx="5"/><rect x="24" y="84" width="38" height="10" rx="5"/></g>
<g fill="#35CDBE" stroke="#123A50" stroke-width="3.5" stroke-linejoin="round"><path d="M73 32Q58 15 67 10Q77 5 84 25Z"/><path d="M123 25Q130 10 139 16Q147 23 136 35Z"/><path d="M62 46C62 27 82 18 105 20C133 22 152 39 152 61C152 84 129 97 102 96C77 96 59 85 58 69C58 62 62 55 62 46Z"/></g>
<path d="M69 30Q67 24 72 22" stroke="#123A50" stroke-width="3" stroke-linecap="round"/>
<g fill="#EFF9F8"><ellipse cx="108" cy="51" rx="14" ry="17"/><ellipse cx="138" cy="53" rx="12" ry="15"/></g>
<g fill="#123A50"><ellipse cx="113" cy="52" rx="6" ry="8"/><ellipse cx="142" cy="54" rx="5" ry="7"/><path d="M133 69Q141 62 148 69Q148 77 140 77Q133 77 133 69Z"/></g>
<path d="M134 84Q140 88 145 83" stroke="#123A50" stroke-width="3" stroke-linecap="round"/>
</g><g color="#EFF9F8" transform="translate(38 128)"><path transform="translate(0 0)" d="M36 10C30 3 7 2 7 25S28 50 38 40V27H25" stroke="#00ADD8" stroke-width="7" stroke-linecap="square" stroke-linejoin="round"/><path transform="translate(45 0)" d="M8 28C8 10 34 10 34 28S8 46 8 28Z" stroke="#00ADD8" stroke-width="7" stroke-linecap="square" stroke-linejoin="round"/><path transform="translate(87 0)" d="M8 43V15M8 26C8 15 21 10 29 16" stroke="currentColor" stroke-width="7" stroke-linecap="square" stroke-linejoin="round"/><path transform="translate(120 0)" d="M8 28C8 10 34 10 34 28S8 46 8 28Z" stroke="currentColor" stroke-width="7" stroke-linecap="square" stroke-linejoin="round"/></g><g fill="#EFF9F8" transform="translate(24 198)"><path transform="translate(0.000 18) scale(0.016000 -0.016000)" d="M535 250V650H615V250Q615 195 602.0 152.5Q589 110 565.5 79.0Q542 48 509.0 28.5Q476 9 435.5 -0.5Q395 -10 349 -10Q302 -10 261.0 -0.5Q220 9 186.5 28.5Q153 48 129.5 79.0Q106 110 93.0 152.5Q80 195 80 250V650H160V250Q160 175 186.0 135.0Q212 95 255.0 80.0Q298 65 349 65Q399 65 441.0 80.0Q483 95 509.0 135.0Q535 175 535 250Z"/><path transform="translate(11.120 18) scale(0.016000 -0.016000)" d="M65 500H145V359Q150 381 160 401Q175 435 198.5 459.5Q222 484 252.5 497.0Q283 510 317 510Q357 510 389.0 498.0Q421 486 443.0 463.0Q465 440 477.0 407.5Q489 375 489 334V0H409V314Q409 372 382.0 401.0Q355 430 301 430Q260 430 225.0 409.0Q190 388 168 352Q152 327 145 297V0H65Z"/><path transform="translate(19.984 18) scale(0.016000 -0.016000)" d="M254 -10Q194 -10 144.5 23.5Q95 57 66.0 115.5Q37 174 37.0 249.0Q37 324 65.0 383.0Q93 442 142.0 476.0Q191 510 254 510Q310 510 345.5 489.5Q381 469 400 433Q416 402 424 364V700H504V0H431Q429 22 426.5 52.0Q424 82 424 100V156Q416 117 399 82Q379 41 344.0 15.5Q309 -10 254 -10ZM274 66Q325 66 358.5 91.0Q392 116 408.0 157.5Q424 199 424 249Q424 304 407.5 345.5Q391 387 357.5 410.5Q324 434 274 434Q199 434 158.0 381.5Q117 329 117 249Q117 196 137.5 154.5Q158 113 193.5 89.5Q229 66 274 66Z"/><path transform="translate(29.328 18) scale(0.016000 -0.016000)" d="M419 161H494Q486 112 458.5 73.5Q431 35 386.5 12.5Q342 -10 284 -10Q214 -10 158.0 23.5Q102 57 69.5 115.5Q37 174 37 249Q37 324 68.5 383.0Q100 442 155.0 476.0Q210 510 279 510Q352 510 402.5 477.5Q453 445 477.5 382.5Q502 320 497 229H117Q122 180 144.0 143.0Q166 106 202.0 85.5Q238 65 284 65Q335 65 370.5 91.5Q406 118 419 161ZM282 435Q220 435 178.0 399.0Q136 363 122 301H415Q411 367 372.5 401.0Q334 435 282 435Z"/><path transform="translate(37.888 18) scale(0.016000 -0.016000)" d="M65 500H145V364Q149 382 158 403Q169 429 187.5 453.5Q206 478 235.0 494.0Q264 510 305 510V425Q254 425 219.5 399.5Q185 374 166 338Q152 312 145 288V0H65Z"/><path transform="translate(43.168 18) scale(0.016000 -0.016000)" d="M41 161H115Q118 118 147.5 91.0Q177 64 233 64Q267 64 286.5 73.0Q306 82 315.0 97.5Q324 113 324 132Q324 155 312.5 168.5Q301 182 281.5 191.0Q262 200 237 208Q208 219 177.5 231.5Q147 244 120.5 261.5Q94 279 78.0 304.5Q62 330 62 366Q62 396 74.0 422.5Q86 449 108.5 468.5Q131 488 161.5 499.0Q192 510 229 510Q279 510 313.5 490.0Q348 470 366.5 433.5Q385 397 386 349H317Q310 394 288.5 414.5Q267 435 227 435Q186 435 164.0 417.0Q142 399 142 369Q142 347 158.0 332.5Q174 318 199.5 306.5Q225 295 254 283Q283 271 310.0 259.0Q337 247 358.0 231.0Q379 215 391.5 191.5Q404 168 404 133Q404 91 384.5 58.5Q365 26 327.5 8.0Q290 -10 236 -10Q187 -10 152.5 2.5Q118 15 95.0 35.5Q72 56 59.5 79.0Q47 102 43.0 124.0Q39 146 41 161Z"/><path transform="translate(50.224 18) scale(0.016000 -0.016000)" d="M30 500H137V630H217V500H324V425H217V0H137V425H30Z"/><path transform="translate(55.888 18) scale(0.016000 -0.016000)" d="M254 -10Q195 -10 145.5 23.5Q96 57 66.5 115.5Q37 174 37.0 249.0Q37 324 67.0 383.0Q97 442 148.5 476.0Q200 510 264 510Q334 510 370.5 474.5Q407 439 421 380Q422 372 424 363V500H504V0H431L426 60Q424 84 424 100V156Q416 117 399 82Q379 41 344.0 15.5Q309 -10 254 -10ZM274 66Q325 66 358.5 91.0Q392 116 408.0 157.5Q424 199 424 249Q424 304 407.5 345.5Q391 387 357.5 410.5Q324 434 274 434Q199 434 158.0 381.5Q117 329 117 249Q117 196 137.5 154.5Q158 113 193.5 89.5Q229 66 274 66Z"/><path transform="translate(64.992 18) scale(0.016000 -0.016000)" d="M65 500H145V359Q150 381 160 401Q175 435 198.5 459.5Q222 484 252.5 497.0Q283 510 317 510Q357 510 389.0 498.0Q421 486 443.0 463.0Q465 440 477.0 407.5Q489 375 489 334V0H409V314Q409 372 382.0 401.0Q355 430 301 430Q260 430 225.0 409.0Q190 388 168 352Q152 327 145 297V0H65Z"/><path transform="translate(73.856 18) scale(0.016000 -0.016000)" d="M254 -10Q194 -10 144.5 23.5Q95 57 66.0 115.5Q37 174 37.0 249.0Q37 324 65.0 383.0Q93 442 142.0 476.0Q191 510 254 510Q310 510 345.5 489.5Q381 469 400 433Q416 402 424 364V700H504V0H431Q429 22 426.5 52.0Q424 82 424 100V156Q416 117 399 82Q379 41 344.0 15.5Q309 -10 254 -10ZM274 66Q325 66 358.5 91.0Q392 116 408.0 157.5Q424 199 424 249Q424 304 407.5 345.5Q391 387 357.5 410.5Q324 434 274 434Q199 434 158.0 381.5Q117 329 117 249Q117 196 137.5 154.5Q158 113 193.5 89.5Q229 66 274 66Z"/><path transform="translate(83.200 18) scale(0.016000 -0.016000)" d=""/><path transform="translate(86.560 18) scale(0.016000 -0.016000)" d="M356 -10Q285 -10 228.5 14.0Q172 38 132.0 81.5Q92 125 71.0 186.0Q50 247 50 320Q50 394 73.0 456.5Q96 519 138.0 564.5Q180 610 237.5 635.0Q295 660 364 660Q439 660 497.0 631.5Q555 603 591.0 551.5Q627 500 634 431H566Q553 479 524.0 513.5Q495 548 454.5 566.5Q414 585 364 585Q295 585 242.5 550.5Q190 516 160.0 456.0Q130 396 130.0 320.0Q130 244 157.0 186.5Q184 129 235.0 97.0Q286 65 356 65Q410 65 450.5 86.0Q491 107 516 148Q539 184 548 236H374V311H661V0H583Q583 33 584.5 74.5Q586 116 589 159Q591 183 592 205Q572 107 518 54Q453 -10 356 -10Z"/><path transform="translate(98.096 18) scale(0.016000 -0.016000)" d="M282 -10Q218 -10 162.0 21.0Q106 52 71.5 110.5Q37 169 37 249Q37 329 71.5 387.5Q106 446 162.0 478.0Q218 510 282 510Q346 510 401.5 478.0Q457 446 491.0 387.5Q525 329 525 249Q525 169 491.0 110.5Q457 52 401.5 21.0Q346 -10 282 -10ZM282 65Q324 65 361.0 86.0Q398 107 421.5 148.5Q445 190 445 249Q445 308 421.5 349.5Q398 391 361.0 413.0Q324 435 282 435Q240 435 202.5 413.5Q165 392 141.0 350.5Q117 309 117 249Q117 190 140.5 148.5Q164 107 202.0 86.0Q240 65 282 65Z"/><path transform="translate(107.088 18) scale(0.016000 -0.016000)" d=""/><path transform="translate(110.448 18) scale(0.016000 -0.016000)" d="M164 700V603H60V700ZM72 500H152V0H72Z"/><path transform="translate(114.032 18) scale(0.016000 -0.016000)" d="M65 500H145V359Q150 381 160 401Q175 435 198.5 459.5Q222 484 252.5 497.0Q283 510 317 510Q357 510 389.0 498.0Q421 486 443.0 463.0Q465 440 477.0 407.5Q489 375 489 334V0H409V314Q409 372 382.0 401.0Q355 430 301 430Q260 430 225.0 409.0Q190 388 168 352Q152 327 145 297V0H65Z"/><path transform="translate(122.896 18) scale(0.016000 -0.016000)" d=""/><path transform="translate(126.256 18) scale(0.016000 -0.016000)" d="M65 500H145V359Q150 381 160 401Q175 435 198.5 459.5Q222 484 252.5 497.0Q283 510 317 510Q357 510 389.0 498.0Q421 486 443.0 463.0Q465 440 477 408Q483 392 486 375Q490 389 496 401Q511 435 534.5 459.5Q558 484 588.5 497.0Q619 510 653 510Q693 510 725.0 498.0Q757 486 779.0 463.0Q801 440 813.0 407.5Q825 375 825 334V0H745V314Q745 372 718.0 401.0Q691 430 637 430Q596 430 561.0 409.0Q526 388 504 352Q495 338 489 322V0H409V314Q409 372 382.0 401.0Q355 430 301 430Q260 430 225.0 409.0Q190 388 168 352Q152 327 145 297V0H65Z"/><path transform="translate(140.496 18) scale(0.016000 -0.016000)" d="M282 -10Q218 -10 162.0 21.0Q106 52 71.5 110.5Q37 169 37 249Q37 329 71.5 387.5Q106 446 162.0 478.0Q218 510 282 510Q346 510 401.5 478.0Q457 446 491.0 387.5Q525 329 525 249Q525 169 491.0 110.5Q457 52 401.5 21.0Q346 -10 282 -10ZM282 65Q324 65 361.0 86.0Q398 107 421.5 148.5Q445 190 445 249Q445 308 421.5 349.5Q398 391 361.0 413.0Q324 435 282 435Q240 435 202.5 413.5Q165 392 141.0 350.5Q117 309 117 249Q117 190 140.5 148.5Q164 107 202.0 86.0Q240 65 282 65Z"/><path transform="translate(149.488 18) scale(0.016000 -0.016000)" d="M30 500H137V630H217V500H324V425H217V0H137V425H30Z"/><path transform="translate(155.152 18) scale(0.016000 -0.016000)" d="M164 700V603H60V700ZM72 500H152V0H72Z"/><path transform="translate(158.736 18) scale(0.016000 -0.016000)" d="M282 -10Q218 -10 162.0 21.0Q106 52 71.5 110.5Q37 169 37 249Q37 329 71.5 387.5Q106 446 162.0 478.0Q218 510 282 510Q346 510 401.5 478.0Q457 446 491.0 387.5Q525 329 525 249Q525 169 491.0 110.5Q457 52 401.5 21.0Q346 -10 282 -10ZM282 65Q324 65 361.0 86.0Q398 107 421.5 148.5Q445 190 445 249Q445 308 421.5 349.5Q398 391 361.0 413.0Q324 435 282 435Q240 435 202.5 413.5Q165 392 141.0 350.5Q117 309 117 249Q117 190 140.5 148.5Q164 107 202.0 86.0Q240 65 282 65Z"/><path transform="translate(167.728 18) scale(0.016000 -0.016000)" d="M65 500H145V359Q150 381 160 401Q175 435 198.5 459.5Q222 484 252.5 497.0Q283 510 317 510Q357 510 389.0 498.0Q421 486 443.0 463.0Q465 440 477.0 407.5Q489 375 489 334V0H409V314Q409 372 382.0 401.0Q355 430 301 430Q260 430 225.0 409.0Q190 388 168 352Q152 327 145 297V0H65Z"/><path transform="translate(176.592 18) scale(0.016000 -0.016000)" d="M169 98V0H65V98Z"/></g></svg>
