<?xml version="1.0" encoding="UTF-8"?>
<svg xmlns="http://www.w3.org/2000/svg" width="1024" height="1024" viewBox="0 0 1024 1024">
  <g transform="translate(512 512) scale(1.4) translate(-344.5 -181)">

<path d="M0 0 C3.79010771 2.55782313 3.79010771 2.55782313 4.9375 6 C6.25397119 6.69937532 7.58772151 7.36729133 8.9375 8 C9.4325 8.99 9.4325 8.99 9.9375 10 C14.25505895 9.06053115 18.55245504 8.11298958 22.8125 6.9375 C59.12316845 -2.12358906 99.86189475 8.35947479 131.4375 26.625 C133.27411534 27.74463396 135.10748067 28.86961716 136.9375 30 C139.03853101 31.23451884 141.14272517 32.46366961 143.25 33.6875 C144.63638672 34.49767578 144.63638672 34.49767578 146.05078125 35.32421875 C148.14701526 36.54111238 150.25245456 37.74219214 152.36328125 38.93359375 C155.92360879 40.96549539 159.37382379 43.14480733 162.8125 45.375 C163.72866089 45.96535034 163.72866089 45.96535034 164.66333008 46.56762695 C168.01395761 48.73219164 171.33067029 50.93785863 174.625 53.1875 C177.83104785 55.360687 181.12058779 57.16283699 184.5625 58.9375 C190.39740127 62.06363224 194.92434246 65.67391362 198.375 71.375 C200.009999 79.00499534 198.96119249 84.37907457 194.9375 91 C194.18339844 92.05767578 194.18339844 92.05767578 193.4140625 93.13671875 C191.34992708 97.13939404 190.85327331 101.14885942 190.125 105.5625 C187.46525971 120.04011337 181.35866008 133.0714949 168.98828125 141.71875 C162.78371534 145.59512641 157.35568082 148.14279379 149.953125 148.09765625 C149.01855469 148.09443359 148.08398438 148.09121094 147.12109375 148.08789062 C146.15300781 148.07951172 145.18492187 148.07113281 144.1875 148.0625 C143.20394531 148.05798828 142.22039062 148.05347656 141.20703125 148.04882812 C138.78379209 148.03706483 136.36067727 148.02062684 133.9375 148 C133.69386719 148.72574219 133.45023438 149.45148438 133.19921875 150.19921875 C128.94340533 159.646334 118.41334122 166.25454571 109.17802715 170.25461292 C99.08188798 173.61343482 88.13997436 173.29388133 77.62573242 173.2746582 C76.03090173 173.27901628 74.43607313 173.28420303 72.84124756 173.29014587 C68.55027074 173.30342134 64.25938259 173.30412805 59.96838927 173.30158257 C56.37469929 173.30050622 52.78102677 173.3054125 49.18734056 173.310188 C40.70992248 173.32124093 32.23254873 173.32174274 23.75512695 173.31567383 C15.02592405 173.3096208 6.2968818 173.32198836 -2.43229371 173.3432439 C-9.95025111 173.36087306 -17.46815741 173.36685966 -24.98613471 173.36360615 C-29.46649191 173.36179715 -33.94673417 173.3643923 -38.42707253 173.37832069 C-42.63547233 173.39091789 -46.84362115 173.38893717 -51.05201721 173.37590981 C-52.59188612 173.37354957 -54.13177283 173.37625883 -55.67162132 173.38453293 C-70.36692034 173.45777984 -70.36692034 173.45777984 -77.0625 170 C-80.21752201 166.68722689 -81.33078982 163.98104739 -81.625 159.5 C-81.39710433 154.49473595 -79.68151748 152.37226629 -76.0625 149 C-72.28449307 146.39197439 -68.21627318 146.71065364 -63.79888916 146.7215271 C-62.95834323 146.7157347 -62.11779729 146.7099423 -61.25178027 146.70397437 C-58.43116116 146.68694936 -55.61070543 146.68409571 -52.79003906 146.68115234 C-50.76976621 146.6718559 -48.74949721 146.66168765 -46.72923279 146.65071106 C-41.23998348 146.62336507 -35.75075989 146.608248 -30.2614603 146.59528303 C-24.52655136 146.57967262 -18.79169511 146.55287575 -13.05682373 146.5272522 C-2.19489956 146.48042738 8.66703449 146.44370118 19.52900815 146.41057932 C31.89407353 146.3723841 44.25908604 146.32296714 56.62410688 146.27259517 C82.06186542 146.16922022 107.49965791 146.07997791 132.9375 146 C134.40500694 141.8579241 135.15425191 139.00396416 134.5625 134.625 C134.35416667 133.08333333 134.14583333 131.54166667 133.9375 130 C124.14980504 127.46332709 114.48112623 127.69202065 104.44287109 127.68115234 C102.47097365 127.67184353 100.49908011 127.66167345 98.52719116 127.65071106 C93.19738306 127.62350447 87.86760126 127.60828942 82.53774214 127.59528303 C76.95901965 127.5796115 71.38035052 127.55283415 65.80166626 127.5272522 C55.24806117 127.48053551 44.69444597 127.44375703 34.14079058 127.41057932 C22.12140724 127.37230763 10.1020776 127.32291072 -1.91726041 127.27259517 C-26.63230043 127.16938108 -51.34737497 127.08008654 -76.0625 127 C-75.75580059 124.26422296 -75.44510006 121.52900024 -75.13208008 118.79394531 C-75.00298626 117.63682541 -75.00298626 117.63682541 -74.87128448 116.45632935 C-74.2804837 111.32993302 -73.40809131 106.65406159 -71.75 101.75 C-71.53126221 101.09854004 -71.31252441 100.44708008 -71.0871582 99.77587891 C-70.43017183 97.84378775 -69.74815543 95.92206663 -69.0625 94 C-68.6809375 92.87851563 -68.299375 91.75703125 -67.90625 90.6015625 C-63.13218586 77.27934298 -55.78432406 66.02341652 -47.0625 55 C-47.38863281 54.34515625 -47.71476562 53.6903125 -48.05078125 53.015625 C-53.61365499 41.39758781 -57.21892572 30.23018894 -53.09765625 17.6171875 C-49.95966487 9.68339798 -45.43802722 2.5360094 -38.0625 -2 C-24.8630126 -7.69555346 -12.27540521 -7.80809002 0 0 Z M74.9375 60 C74.39353828 64.81539887 74.21259689 68.75730895 76.6875 73 C81.14677428 76.96379936 84.69959479 77.38721542 90.53125 77.25 C93.72654044 76.91802177 95.52388416 76.12105635 97.9375 74 C101.10705197 70.06538376 101.47098798 66.97922113 100.9375 62 C99.28828779 57.82846322 96.82348381 55.77564269 92.82421875 53.73828125 C85.2403385 50.77067594 80.16251972 54.77498028 74.9375 60 Z " fill="#3A4B63" transform="translate(283.0625,100)"/>
<path d="M0 0 C4.67286839 0.0324201 9.34420577 0.09237794 14.01620042 0.1888659 C15.44610131 0.2162119 16.87613809 0.23729983 18.30622923 0.25157142 C20.2653634 0.27320233 22.22412998 0.3227009 24.18272638 0.37344265 C25.28264131 0.39493689 26.38255623 0.41643112 27.51580191 0.4385767 C31.87885658 1.21276559 35.22387258 3.23443202 37.97497797 6.73583889 C39.26466611 11.37871621 39.26448683 15.41200211 37.41247797 19.79833889 C34.77356162 22.98323793 32.64679855 24.66363919 28.46376562 25.32211018 C20.17170054 26.08215452 11.90424847 26.12727104 3.58557367 26.11523342 C1.99729609 26.11659131 0.40901882 26.11837341 -1.17925787 26.12054348 C-5.4672792 26.12507656 -9.75527629 26.12334401 -14.04329801 26.12016439 C-18.56307027 26.11761364 -23.08284061 26.11998638 -27.60261297 26.12155056 C-35.20411309 26.12336679 -42.80560347 26.12098282 -50.40710211 26.11620998 C-59.13248203 26.11079392 -67.85783847 26.11251281 -76.5832178 26.11803639 C-84.12175862 26.12261378 -91.66029248 26.12319494 -99.19883424 26.12059772 C-103.67969047 26.11905684 -108.16053579 26.11877926 -112.64139128 26.12213421 C-122.88540485 26.12848787 -133.12829401 26.10319261 -143.3718729 26.00422287 C-145.33525751 25.98642594 -147.29868925 25.97408785 -149.26211691 25.961936 C-152.6436927 25.93221564 -156.02245148 25.86864475 -159.40319586 25.79003811 C-160.3521734 25.78483213 -161.30115093 25.77962616 -162.27888536 25.77426243 C-168.36913896 25.57443329 -171.16575799 24.41932937 -175.40002203 19.98583889 C-177.85786765 16.34794807 -177.64824617 13.40848773 -177.08361578 9.17724514 C-175.90625035 5.40294795 -173.6542604 4.11105578 -170.40002203 1.98583889 C-167.58449108 0.57807341 -165.23008059 0.84159682 -162.0795722 0.82089138 C-161.0951299 0.81242607 -161.0951299 0.81242607 -160.09079987 0.80378973 C-157.87999796 0.78601964 -155.66921824 0.7753533 -153.45837164 0.76464748 C-151.8761696 0.7534327 -150.29397048 0.74180049 -148.71177435 0.72978115 C-144.39578654 0.69835413 -140.07978297 0.67326339 -135.7637465 0.64958429 C-132.14064896 0.62912902 -128.51757415 0.60558861 -124.89449555 0.5820471 C-116.30936541 0.52630665 -107.72421549 0.47565015 -99.1390357 0.4282217 C-90.36456092 0.37967197 -81.59016262 0.32332796 -72.81576294 0.26280057 C-65.23822398 0.21078845 -57.66066481 0.16361766 -50.08307225 0.12011302 C-45.57886183 0.09422482 -41.07467785 0.0667719 -36.57050657 0.03473949 C-24.3797141 -0.05030741 -12.19089829 -0.07193128 0 0 Z " fill="#A9C1CF" transform="translate(398.4000220298767,291.0141611099243)"/>
<path d="M0 0 C0.60375977 1.84985352 0.60375977 1.84985352 1 4 C-5.84902859 13.91094725 -16.63851377 23.01407651 -28.63001537 25.55792522 C-37.54441184 27.02834105 -46.30411056 27.29112685 -55.31176758 27.2746582 C-56.90659827 27.27901628 -58.50142687 27.28420303 -60.09625244 27.29014587 C-64.38722926 27.30342134 -68.67811741 27.30412805 -72.96911073 27.30158257 C-76.56280071 27.30050622 -80.15647323 27.3054125 -83.75015944 27.310188 C-92.22757752 27.32124093 -100.70495127 27.32174274 -109.18237305 27.31567383 C-117.91157595 27.3096208 -126.6406182 27.32198836 -135.36979371 27.3432439 C-142.88775111 27.36087306 -150.40565741 27.36685966 -157.92363471 27.36360615 C-162.40399191 27.36179715 -166.88423417 27.3643923 -171.36457253 27.37832069 C-175.57297233 27.39091789 -179.78112115 27.38893717 -183.98951721 27.37590981 C-185.52938612 27.37354957 -187.06927283 27.37625883 -188.60912132 27.38453293 C-203.30442034 27.45777984 -203.30442034 27.45777984 -210 24 C-213.15502201 20.68722689 -214.26828982 17.98104739 -214.5625 13.5 C-214.33460433 8.49473595 -212.61901748 6.37226629 -209 3 C-205.22199307 0.39197439 -201.15377318 0.71065364 -196.73638916 0.7215271 C-195.47557026 0.7128385 -195.47557026 0.7128385 -194.18928027 0.70397437 C-191.36866116 0.68694936 -188.54820543 0.68409571 -185.72753906 0.68115234 C-183.70726621 0.6718559 -181.68699721 0.66168765 -179.66673279 0.65071106 C-174.17748348 0.62336507 -168.68825989 0.608248 -163.1989603 0.59528303 C-157.46405136 0.57967262 -151.72919511 0.55287575 -145.99432373 0.5272522 C-135.13239956 0.48042738 -124.27046551 0.44370118 -113.40849185 0.41057932 C-101.04342647 0.3723841 -88.67841396 0.32296714 -76.31339312 0.27259517 C-50.87563458 0.16922022 -25.43784209 0.07997791 0 0 Z " fill="#A8C0CE" transform="translate(416,246)"/>
<path d="M0 0 C0.66 0.99 1.32 1.98 2 3 C1.34 3 0.68 3 0 3 C0.33 5.31 0.66 7.62 1 10 C0.01 10.495 0.01 10.495 -1 11 C-0.67 12.32 -0.34 13.64 0 15 C-0.99 15.66 -1.98 16.32 -3 17 C-4.19232613 19.05003955 -4.19232613 19.05003955 -5 21 C-4.42351925 13.64987044 -2.28953836 6.98575424 0 0 Z " fill="#7E8792" transform="translate(214,194)"/>
<path d="M0 0 C3.1875 0.875 3.1875 0.875 6 2 C4.02579865 4.52259061 3.03254358 4.9929808 -0.1875 5.6875 C-1.5796875 5.8421875 -1.5796875 5.8421875 -3 6 C-3 4.68 -3 3.36 -3 2 C-2.01 1.34 -1.02 0.68 0 0 Z " fill="#5A6676" transform="translate(442,241)"/>
<path d="M0 0 C0.66 0 1.32 0 2 0 C2.90282145 3.52921112 3.25033181 5.40710887 1.8125 8.8125 C-0.13881649 11.16753715 -1.01377363 11.69108003 -4 12 C-2.88793071 9.69031762 -1.72622504 7.58426766 -0.3125 5.4375 C0.120625 4.633125 0.55375 3.82875 1 3 C0.67 2.01 0.34 1.02 0 0 Z " fill="#657380" transform="translate(235,151)"/>
<path d="M0 0 C0.33 0 0.66 0 1 0 C1.27429625 5.39449293 1.36055646 8.51925805 -2 13 C-2.66 12.01 -3.32 11.02 -4 10 C-3.71125 9.46375 -3.4225 8.9275 -3.125 8.375 C-1.83288192 5.64719516 -0.91441408 2.87387282 0 0 Z " fill="#BACAD3" transform="translate(436,300)"/>
<path d="M0 0 C3.96 0 7.92 0 12 0 C12 0.33 12 0.66 12 1 C11.0925 1.12375 10.185 1.2475 9.25 1.375 C6.08163995 1.83249734 6.08163995 1.83249734 3.75 3.125 C3.1725 3.41375 2.595 3.7025 2 4 C1.34 3.67 0.68 3.34 0 3 C0 2.01 0 1.02 0 0 Z " fill="#737E8C" transform="translate(364,177)"/>
<path d="M0 0 C0.33 0.99 0.66 1.98 1 3 C1.66 3.33 2.32 3.66 3 4 C3 4.66 3 5.32 3 6 C3.99 6.66 4.98 7.32 6 8 C3.69 8 1.38 8 -1 8 C-0.67 5.36 -0.34 2.72 0 0 Z " fill="#556271" transform="translate(418,240)"/>
<path d="M0 0 C2.97 0.495 2.97 0.495 6 1 C5.67 2.98 5.34 4.96 5 7 C4.01 6.67 3.02 6.34 2 6 C0.8125 2.9375 0.8125 2.9375 0 0 Z " fill="#5A6D7C" transform="translate(465,212)"/>
<path d="M0 0 C3.33333333 1.66666667 6.66666667 3.33333333 10 5 C8.02 5.99 8.02 5.99 6 7 C5.67 6.34 5.34 5.68 5 5 C4.34 5 3.68 5 3 5 C3 4.34 3 3.68 3 3 C2.01 3 1.02 3 0 3 C0 2.01 0 1.02 0 0 Z " fill="#697387" transform="translate(445,146)"/>
<path d="M0 0 C0.845625 0.309375 1.69125 0.61875 2.5625 0.9375 C6.0497854 2.01538821 9.38177535 2.56581304 13 3 C13 3.33 13 3.66 13 4 C4.80743982 4.63019694 4.80743982 4.63019694 1.4375 2 C0.7259375 1.01 0.7259375 1.01 0 0 Z " fill="#BDCFD9" transform="translate(225,312)"/>
<path d="M0 0 C2 2 2 2 2 6 C1.34 6 0.68 6 0 6 C-0.33 6.99 -0.66 7.98 -1 9 C-2.25541557 5.23375329 -1.37061958 3.62811066 0 0 Z " fill="#5A6573" transform="translate(219,181)"/>
<path d="M0 0 C4.02992782 0.55312735 8.02022924 1.1558062 12 2 C12 2.33 12 2.66 12 3 C8.10885099 4.01911045 6.39403493 4.16782969 2.625 2.5625 C1.75875 2.046875 0.8925 1.53125 0 1 C0 0.67 0 0.34 0 0 Z " fill="#808B95" transform="translate(360,107)"/>
<path d="M0 0 C1.9375 0.75 1.9375 0.75 4 2 C4.875 4 4.875 4 5 6 C4.34 6.66 3.68 7.32 3 8 C2.67 6.35 2.34 4.7 2 3 C1.34 3 0.68 3 0 3 C0 2.01 0 1.02 0 0 Z " fill="#6B7480" transform="translate(415,227)"/>
<path d="M0 0 C2.91517292 1.07401108 4.77810176 1.77810176 7 4 C5.1875 4.6875 5.1875 4.6875 3 5 C1.25 3.6875 1.25 3.6875 0 2 C0 1.34 0 0.68 0 0 Z " fill="#6B7A87" transform="translate(424,133)"/>

  </g>
</svg>